<svg width="38" height="38" viewBox="0 0 38 38" fill="none" xmlns="http://www.w3.org/2000/svg">
<g clip-path="url(#clip0_109_213)">
<path d="M28.6996 22.5925C26.0584 22.5925 23.9097 24.7412 23.9097 27.3825C23.9097 30.0237 26.0584 32.1724 28.6996 32.1724C31.3413 32.1724 33.4895 30.0237 33.4895 27.3825C33.4895 24.7412 31.3408 22.5925 28.6996 22.5925ZM28.6996 29.7774C27.3788 29.7774 26.3046 28.7033 26.3046 27.3825C26.3046 26.0617 27.3788 24.9875 28.6996 24.9875C30.0204 24.9875 31.0946 26.0617 31.0946 27.3825C31.0946 28.7033 30.0204 29.7774 28.6996 29.7774Z" fill="#FF6C4E"/>
<path d="M12.3341 22.5925C9.69283 22.5925 7.54413 24.7412 7.54413 27.3825C7.54413 30.0237 9.69283 32.1724 12.3341 32.1724C14.9753 32.1724 17.124 30.0237 17.124 27.3825C17.124 24.7412 14.9753 22.5925 12.3341 22.5925ZM12.3341 29.7774C11.0133 29.7774 9.93909 28.7033 9.93909 27.3825C9.93909 26.0617 11.0133 24.9875 12.3341 24.9875C13.6545 24.9875 14.729 26.0617 14.729 27.3825C14.729 28.7033 13.6549 29.7774 12.3341 29.7774Z" fill="#FF6C4E"/>
<path d="M31.9252 8.88209C31.7216 8.47775 31.3077 8.22266 30.855 8.22266H24.5483V10.6176H30.1165L33.3773 17.1032L35.5176 16.027L31.9252 8.88209Z" fill="#FF6C4E"/>
<path d="M25.1071 26.2249H16.0462V28.6198H25.1071V26.2249Z" fill="#FF6C4E"/>
<path d="M8.74159 26.2249H4.59039C3.92895 26.2249 3.39294 26.7609 3.39294 27.4223C3.39294 28.0837 3.92903 28.6197 4.59039 28.6197H8.74167C9.40311 28.6197 9.93911 28.0837 9.93911 27.4223C9.93911 26.7609 9.40303 26.2249 8.74159 26.2249Z" fill="#FF6C4E"/>
<path d="M37.7486 18.9041L35.3932 15.8705C35.1669 15.5783 34.8176 15.4074 34.4476 15.4074H25.7459V7.02508C25.7459 6.36364 25.2098 5.82764 24.5484 5.82764H4.59039C3.92895 5.82764 3.39294 6.36372 3.39294 7.02508C3.39294 7.68645 3.92903 8.22253 4.59039 8.22253H23.3509V16.6049C23.3509 17.2663 23.887 17.8023 24.5483 17.8023H33.8612L35.6051 20.0488V26.2246H32.292C31.6306 26.2246 31.0946 26.7607 31.0946 27.422C31.0946 28.0835 31.6307 28.6195 32.292 28.6195H36.8025C37.464 28.6195 38 28.0834 38 27.422V19.6386C38 19.3727 37.9114 19.1141 37.7486 18.9041Z" fill="#FF6C4E"/>
<path d="M8.66176 20.1575H3.15332C2.49188 20.1575 1.95587 20.6936 1.95587 21.3549C1.95587 22.0164 2.49195 22.5524 3.15332 22.5524H8.66168C9.32312 22.5524 9.85913 22.0163 9.85913 21.3549C9.8592 20.6936 9.32312 20.1575 8.66176 20.1575Z" fill="#FF6C4E"/>
<path d="M11.416 15.4475H1.19745C0.536082 15.4475 0 15.9836 0 16.645C0 17.3065 0.536082 17.8425 1.19745 17.8425H11.416C12.0774 17.8425 12.6134 17.3064 12.6134 16.645C12.6134 15.9837 12.0774 15.4475 11.416 15.4475Z" fill="#FF6C4E"/>
<path d="M13.3718 10.7375H3.15332C2.49188 10.7375 1.95587 11.2736 1.95587 11.935C1.95587 12.5964 2.49195 13.1324 3.15332 13.1324H13.3718C14.0333 13.1324 14.5693 12.5964 14.5693 11.935C14.5693 11.2736 14.0333 10.7375 13.3718 10.7375Z" fill="#FF6C4E"/>
</g>
<defs>
<clipPath id="clip0_109_213">
<rect width="38" height="38" fill="white"/>
</clipPath>
</defs>
</svg>
