<svg width="24" height="22" viewBox="0 0 24 22" fill="none" xmlns="http://www.w3.org/2000/svg">
<path d="M19.4577 10.7479C21.9175 8.56043 22.1189 4.81461 19.9076 2.38136C17.8795 0.149677 14.4849 -0.22945 12.0049 1.4988C9.3014 -0.388633 5.5631 0.24934 3.65513 2.9237C1.90441 5.37767 2.2861 8.73923 4.54353 10.7478C1.73862 12.2105 -0.0119968 15.0941 0.000709573 18.2307V20.7744C0.000709573 21.2427 0.384463 21.6223 0.857865 21.6223H23.1434C23.6168 21.6223 24.0006 21.2427 24.0006 20.7744V18.2307C24.0133 15.0941 22.2626 12.2105 19.4577 10.7479ZM15.4291 2.12033C17.7927 2.11775 19.711 4.0111 19.7136 6.34926C19.7155 8.0168 18.7277 9.53008 17.1906 10.2145C17.1246 10.2442 17.0586 10.2713 16.9917 10.2993C16.7802 10.3837 16.562 10.4509 16.3394 10.5003C16.2966 10.5096 16.2537 10.5147 16.21 10.5232C15.9613 10.5703 15.7089 10.5956 15.4557 10.5987C15.3417 10.5987 15.2269 10.5902 15.1128 10.58C15.07 10.58 15.0271 10.58 14.9843 10.5715C14.4971 10.5148 14.0232 10.3766 13.5829 10.1628C13.5666 10.1552 13.5477 10.156 13.5314 10.1493C13.4457 10.1086 13.36 10.073 13.2837 10.0272C13.2906 10.0187 13.2949 10.0094 13.3017 10.0009C13.6947 9.50126 14.0046 8.94283 14.2197 8.34659L14.2462 8.27535C14.344 7.99057 14.42 7.69893 14.4734 7.40282C14.4811 7.3596 14.4871 7.31802 14.494 7.27141C14.5436 6.96999 14.5696 6.66529 14.572 6.35989C14.5695 6.05509 14.5435 5.75093 14.494 5.45005C14.4871 5.40598 14.4811 5.36525 14.4734 5.31864C14.42 5.02259 14.344 4.7309 14.2462 4.44612L14.2197 4.37487C14.0046 3.77864 13.6947 3.2202 13.3017 2.7206C13.2948 2.7121 13.2906 2.70281 13.2837 2.69431C13.9349 2.31852 14.6753 2.12038 15.4291 2.12033ZM4.28638 6.35994C4.28031 4.02456 6.18913 2.12649 8.54991 2.12048C9.65652 2.11765 10.7211 2.5395 11.5198 3.29726C11.5695 3.34476 11.6184 3.3922 11.6663 3.44139C11.8135 3.59396 11.9493 3.75692 12.0726 3.92892C12.1104 3.98149 12.1447 4.03748 12.1798 4.09173C12.2996 4.27412 12.4047 4.4655 12.4943 4.66408C12.5158 4.71242 12.532 4.7616 12.5509 4.80989C12.6412 5.02954 12.7123 5.25649 12.7635 5.48821C12.7695 5.51365 12.7712 5.53908 12.7763 5.56537C12.8849 6.09185 12.8849 6.63463 12.7763 7.16112C12.7712 7.1874 12.7694 7.21284 12.7635 7.23828C12.7124 7.46999 12.6413 7.69694 12.5509 7.91659C12.532 7.96493 12.5157 8.01412 12.4943 8.06241C12.4046 8.26069 12.2995 8.45177 12.1798 8.63391C12.1446 8.68816 12.1104 8.74415 12.0726 8.79672C11.9494 8.96877 11.8135 9.13167 11.6663 9.28425C11.6183 9.33344 11.5695 9.38093 11.5198 9.42838C11.1728 9.75554 10.7726 10.0227 10.3361 10.2186C10.2667 10.25 10.1964 10.2788 10.1253 10.3034C9.91864 10.3846 9.70604 10.4498 9.48928 10.4984C9.43529 10.5103 9.37954 10.5171 9.3247 10.5264C9.09197 10.5693 8.85597 10.5928 8.61927 10.5968H8.525C8.2883 10.5928 8.0523 10.5693 7.81957 10.5264C7.76473 10.5171 7.70898 10.5103 7.65499 10.4984C7.43823 10.4498 7.22558 10.3846 7.01902 10.3034C6.94785 10.2755 6.87759 10.2466 6.80818 10.2186C5.27467 9.53371 4.28834 8.02435 4.28638 6.35994ZM15.4291 19.9265H1.71497V18.2307C1.70241 15.3574 3.53244 12.7921 6.2732 11.8409C7.74454 12.4468 9.39953 12.4468 10.8709 11.8409C11.1571 11.9443 11.436 12.0664 11.7058 12.2063C11.8841 12.297 12.0486 12.4005 12.2201 12.5048C12.3315 12.5734 12.4446 12.6405 12.5518 12.7159C12.7172 12.8321 12.8732 12.9584 13.0266 13.0881C13.1252 13.1729 13.2229 13.2577 13.3155 13.3425C13.4569 13.4748 13.5897 13.6147 13.7174 13.758C13.8092 13.8614 13.8983 13.9666 13.9832 14.0751C14.0955 14.2176 14.2026 14.3634 14.302 14.5135C14.3878 14.6407 14.4641 14.7729 14.5394 14.9052C14.6252 15.051 14.704 15.1969 14.776 15.3487C14.848 15.5005 14.9115 15.6667 14.9731 15.8286C15.0271 15.9694 15.0846 16.1093 15.1291 16.2526C15.1891 16.4493 15.2311 16.6528 15.2731 16.8563C15.2988 16.9766 15.3323 17.0945 15.3511 17.2166C15.4019 17.5523 15.4279 17.8912 15.4291 18.2307V19.9265H15.4291ZM22.2863 19.9265H17.1435V18.2307C17.1435 17.9653 17.128 17.7025 17.104 17.4422C17.0972 17.3659 17.0852 17.2904 17.0766 17.2141C17.0535 17.0267 17.0269 16.841 16.9909 16.657C16.9755 16.5784 16.9592 16.4995 16.942 16.4204C16.9009 16.2316 16.8532 16.0445 16.7989 15.8591C16.7809 15.798 16.7646 15.7361 16.7457 15.676C16.5057 14.917 16.1579 14.1956 15.7129 13.5333L15.6795 13.485C15.5321 13.2684 15.3746 13.059 15.2072 12.8567L15.2012 12.849C15.0298 12.6388 14.8437 12.4344 14.6483 12.2411C14.6595 12.2411 14.6715 12.2411 14.6835 12.2411C14.9254 12.2725 15.1689 12.2895 15.4129 12.2919H15.4601C15.6859 12.29 15.9113 12.2755 16.1355 12.2487C16.2058 12.2402 16.2753 12.2275 16.3455 12.2165C16.5278 12.1888 16.7078 12.1529 16.8855 12.1088C16.9361 12.0961 16.9875 12.0842 17.0389 12.0698C17.2721 12.007 17.5011 11.93 17.7246 11.8392C20.4674 12.7894 22.2991 15.3559 22.2863 18.2308V19.9265H22.2863Z" fill="#7A7A7A"/>
</svg>
