<svg width="21" height="21" viewBox="0 0 21 21" fill="none" xmlns="http://www.w3.org/2000/svg">
<path d="M17 0.847168C17.552 0.847168 18 1.29035 18 1.83641V5.55298L16 7.53145V2.82564H2V18.6535H16V15.9251L18 13.9467V19.6427C18 20.1888 17.552 20.6319 17 20.6319H1C0.448 20.6319 0 20.1888 0 19.6427V1.83641C0 1.29035 0.448 0.847168 1 0.847168H17ZM18.778 7.5819L20.192 8.98069L12.414 16.675L10.998 16.673L11 15.2762L18.778 7.5819ZM10 10.7396V12.718H5V10.7396H10ZM13 6.7826V8.76108H5V6.7826H13Z" fill="#7A7A7A"/>
</svg>
