<svg width="22" height="17" viewBox="0 0 22 17" fill="none" xmlns="http://www.w3.org/2000/svg">
<path fill-rule="evenodd" clip-rule="evenodd" d="M0.100006 3.42637C0.100006 1.82474 1.39838 0.526367 3.00001 0.526367H19C20.6016 0.526367 21.9 1.82474 21.9 3.42637V5.42637V13.4264C21.9 15.028 20.6016 16.3264 19 16.3264H3.00001C1.39838 16.3264 0.100006 15.028 0.100006 13.4264V5.42637V3.42637ZM3.00001 2.32637C2.39249 2.32637 1.90001 2.81885 1.90001 3.42637V4.52637H20.1V3.42637C20.1 2.81885 19.6075 2.32637 19 2.32637H3.00001ZM20.1 6.32637H1.90001V13.4264C1.90001 14.0339 2.39249 14.5264 3.00001 14.5264H19C19.6075 14.5264 20.1 14.0339 20.1 13.4264V6.32637ZM12.1 11.4264C12.1 10.9293 12.503 10.5264 13 10.5264H17C17.4971 10.5264 17.9 10.9293 17.9 11.4264C17.9 11.9234 17.4971 12.3264 17 12.3264H13C12.503 12.3264 12.1 11.9234 12.1 11.4264Z" fill="#7A7A7A"/>
</svg>
