<svg width="20" height="20" viewBox="0 0 20 20" fill="none" xmlns="http://www.w3.org/2000/svg">
<path d="M9.80286 3.25037C9.86064 3.29082 9.92947 3.31252 10 3.31252C10.0705 3.31252 10.1394 3.29082 10.1971 3.25037C10.85 2.76943 11.4473 2.2174 11.9782 1.60445C13.1577 0.247925 13.7812 -1.18203 13.7812 -2.53125C13.7812 -3.5341 13.3829 -4.49588 12.6737 -5.205C11.9646 -5.91412 11.0028 -6.3125 10 -6.3125C8.99715 -6.3125 8.03537 -5.91412 7.32625 -5.205C6.61713 -4.49588 6.21875 -3.5341 6.21875 -2.53125C6.21875 -1.18203 6.84227 0.247925 8.02185 1.60445C8.55268 2.2174 9.15002 2.76943 9.80286 3.25037ZM10 -5.625C10.8202 -5.62408 11.6066 -5.29784 12.1866 -4.71784C12.7666 -4.13785 13.0928 -3.35148 13.0938 -2.53125C13.0938 -0.0716758 10.7097 1.98159 10 2.53833C9.28921 1.98227 6.90625 -0.0669494 6.90625 -2.53125C6.90717 -3.35148 7.23341 -4.13785 7.81341 -4.71784C8.3934 -5.29784 9.17977 -5.62408 10 -5.625Z" fill="#6C63FF"/>
<path d="M5.43359 18.5444L5.63572 17.8872L6.32337 18.0987L6.12124 18.7559L5.43359 18.5444Z" fill="#6C63FF"/>
<path d="M6.80835 18.9663L7.01049 18.309L7.69813 18.5205L7.496 19.1778L6.80835 18.9663Z" fill="#6C63FF"/>
<path d="M8.18359 19.3904L8.38572 18.7331L9.07337 18.9446L8.87124 19.6019L8.18359 19.3904Z" fill="#6C63FF"/>
<path d="M19.0386 1.609L13.8824 0.0224609L13.6801 0.679582L17.7687 1.93754L10 4.32789L2.23125 1.93754L6.31973 0.679582L6.11752 0.0224609L0.961266 1.609C0.891032 1.63064 0.829583 1.67422 0.785937 1.73335C0.74229 1.79248 0.718743 1.86404 0.71875 1.93754V11.2188C0.718751 11.2923 0.742317 11.3639 0.785988 11.423C0.82966 11.4821 0.891137 11.5257 0.961395 11.5473L9.89889 14.2973C9.96477 14.3176 10.0352 14.3176 10.1011 14.2973L19.0386 11.5473C19.1089 11.5257 19.1703 11.4821 19.214 11.423C19.2577 11.3639 19.2812 11.2923 19.2812 11.2188V1.93754C19.2812 1.86403 19.2577 1.79245 19.214 1.73332C19.1703 1.67419 19.1089 1.63062 19.0386 1.609ZM1.40625 2.40297L9.65625 4.94144V13.5034L1.40625 10.9649V2.40297ZM10.3438 13.5034V4.94144L18.5938 2.40297V10.9649L10.3438 13.5034Z" fill="#6C63FF"/>
<path d="M14.3699 10.895L15.0575 10.6835L15.2596 11.3408L14.572 11.5523L14.3699 10.895Z" fill="#6C63FF"/>
<path d="M15.7445 10.4731L16.4322 10.2617L16.6343 10.919L15.9466 11.1304L15.7445 10.4731Z" fill="#6C63FF"/>
<path d="M17.1206 10.0488L17.8083 9.83736L18.0104 10.4946L17.3227 10.7061L17.1206 10.0488Z" fill="#6C63FF"/>
<path d="M7.25 14.5697C7.34117 14.5697 7.4286 14.5335 7.49307 14.469C7.55753 14.4045 7.59375 14.3171 7.59375 14.2259V12.5072C7.59375 12.4337 7.57018 12.3621 7.52651 12.303C7.48284 12.2438 7.42136 12.2003 7.35111 12.1786L3.91361 11.1209C3.86219 11.1051 3.80778 11.1016 3.75474 11.1106C3.70171 11.1196 3.65154 11.141 3.60827 11.173C3.565 11.2049 3.52983 11.2466 3.5056 11.2946C3.48136 11.3427 3.46874 11.3957 3.46875 11.4495V13.1682C3.46875 13.2418 3.49232 13.3133 3.53599 13.3725C3.57966 13.4316 3.64114 13.4752 3.71139 13.4968L7.14889 14.5545C7.18165 14.5646 7.21573 14.5697 7.25 14.5697ZM6.90625 13.7605L4.15625 12.9144V11.9149L6.90625 12.761V13.7605Z" fill="#6C63FF"/>
<path d="M16.5312 6.16849V4.44974C16.5313 4.39595 16.5186 4.3429 16.4944 4.29487C16.4702 4.24684 16.435 4.20517 16.3917 4.17321C16.3485 4.14124 16.2983 4.11988 16.2453 4.11084C16.1922 4.1018 16.1378 4.10534 16.0864 4.12116L12.6489 5.17888C12.5786 5.2005 12.5172 5.24408 12.4735 5.30321C12.4298 5.36234 12.4063 5.43391 12.4063 5.50742V7.22617C12.4062 7.27997 12.4189 7.33301 12.4431 7.38104C12.4673 7.42907 12.5025 7.47075 12.5458 7.50271C12.589 7.53467 12.6392 7.55603 12.6922 7.56507C12.7453 7.57411 12.7997 7.57057 12.8511 7.55475L16.2886 6.49703C16.3589 6.47541 16.4203 6.43184 16.464 6.37271C16.5077 6.31358 16.5312 6.242 16.5312 6.16849ZM15.8438 5.91463L13.0938 6.76073V5.76128L15.8438 4.91518V5.91463Z" fill="#6C63FF"/>
</svg>
