<svg width="24" height="24" viewBox="0 0 24 24" fill="none" xmlns="http://www.w3.org/2000/svg">
<g clip-path="url(#clip0_109_426)">
<path d="M18.126 14.2689C16.4579 14.2689 15.1008 15.626 15.1008 17.2941C15.1008 18.9623 16.4579 20.3194 18.126 20.3194C19.7945 20.3194 21.1513 18.9623 21.1513 17.2941C21.1513 15.626 19.7942 14.2689 18.126 14.2689ZM18.126 18.8067C17.2919 18.8067 16.6134 18.1283 16.6134 17.2941C16.6134 16.46 17.2919 15.7815 18.126 15.7815C18.9602 15.7815 19.6387 16.46 19.6387 17.2941C19.6387 18.1284 18.9602 18.8067 18.126 18.8067Z" fill="#FF6C4E"/>
<path d="M7.78987 14.2689C6.12173 14.2689 4.76465 15.626 4.76465 17.2941C4.76465 18.9623 6.12173 20.3194 7.78987 20.3194C9.45801 20.3194 10.8151 18.9623 10.8151 17.2941C10.8151 15.626 9.45801 14.2689 7.78987 14.2689ZM7.78987 18.8067C6.95568 18.8067 6.27726 18.1283 6.27726 17.2941C6.27726 16.46 6.95568 15.7815 7.78987 15.7815C8.62382 15.7815 9.30248 16.46 9.30248 17.2941C9.30248 18.1284 8.62405 18.8067 7.78987 18.8067Z" fill="#FF6C4E"/>
<path d="M20.1632 5.60984C20.0347 5.35447 19.7732 5.19336 19.4874 5.19336H15.5042V6.70597H19.0209L21.0804 10.8021L22.4321 10.1224L20.1632 5.60984Z" fill="#FF6C4E"/>
<path d="M15.8572 16.5631H10.1345V18.0757H15.8572V16.5631Z" fill="#FF6C4E"/>
<path d="M5.52104 16.5631H2.89923C2.48148 16.5631 2.14294 16.9017 2.14294 17.3194C2.14294 17.7371 2.48152 18.0757 2.89923 18.0757H5.52108C5.93883 18.0757 6.27737 17.7371 6.27737 17.3194C6.27737 16.9016 5.93879 16.5631 5.52104 16.5631Z" fill="#FF6C4E"/>
<path d="M23.8412 11.9395L22.3536 10.0235C22.2107 9.83896 21.9901 9.73106 21.7564 9.73106H16.2606V4.43695C16.2606 4.0192 15.922 3.68066 15.5043 3.68066H2.89923C2.48148 3.68066 2.14294 4.01924 2.14294 4.43695C2.14294 4.85465 2.48152 5.19323 2.89923 5.19323H14.748V10.4873C14.748 10.9051 15.0865 11.2436 15.5042 11.2436H21.386L22.4874 12.6624V16.5629H20.395C19.9772 16.5629 19.6387 16.9015 19.6387 17.3192C19.6387 17.737 19.9773 18.0755 20.395 18.0755H23.2437C23.6615 18.0755 24 17.7369 24.0001 17.3192V12.4034C24.0001 12.2354 23.9441 12.0721 23.8412 11.9395Z" fill="#FF6C4E"/>
<path d="M5.47053 12.7311H1.99151C1.57376 12.7311 1.23523 13.0697 1.23523 13.4874C1.23523 13.9051 1.57381 14.2436 1.99151 14.2436H5.47048C5.88823 14.2436 6.22676 13.9051 6.22676 13.4874C6.22681 13.0697 5.88823 12.7311 5.47053 12.7311Z" fill="#FF6C4E"/>
<path d="M7.21008 9.75635H0.756281C0.338578 9.75635 0 10.0949 0 10.5127C0 10.9304 0.338578 11.269 0.756281 11.269H7.21008C7.62783 11.269 7.96636 10.9304 7.96636 10.5127C7.96636 10.095 7.62783 9.75635 7.21008 9.75635Z" fill="#FF6C4E"/>
<path d="M8.44531 6.78149H1.99151C1.57376 6.78149 1.23523 7.12007 1.23523 7.53778C1.23523 7.95553 1.57381 8.29406 1.99151 8.29406H8.44531C8.86306 8.29406 9.20159 7.95548 9.20159 7.53778C9.20163 7.12007 8.86306 6.78149 8.44531 6.78149Z" fill="#FF6C4E"/>
</g>
<defs>
<clipPath id="clip0_109_426">
<rect width="24" height="24" fill="white"/>
</clipPath>
</defs>
</svg>
