<svg width="730" height="317" viewBox="0 0 730 317" fill="none" xmlns="http://www.w3.org/2000/svg">
<g clip-path="url(#clip0_109_343)">
<rect y="317" width="317" height="730" rx="6" transform="rotate(-90 0 317)" fill="white"/>
<g opacity="0.15" clip-path="url(#clip1_109_343)">
<path d="M385.76 225.903L303.89 326.232C301.396 329.288 301.852 333.786 304.908 336.28L422.444 432.192C425.499 434.685 429.998 434.229 432.491 431.174L514.362 330.845C516.855 327.789 516.399 323.291 513.344 320.797L395.808 224.885C392.752 222.392 388.254 222.848 385.76 225.903Z" fill="#898EBC"/>
<path d="M284.327 143.133L202.457 243.462C199.963 246.518 200.419 251.016 203.475 253.509L275.573 312.343C278.629 314.837 283.127 314.381 285.621 311.325L367.491 210.996C369.985 207.941 369.529 203.442 366.473 200.949L294.375 142.115C291.319 139.622 286.821 140.077 284.327 143.133Z" fill="#898EBC"/>
<path d="M226.497 6.92938L57.4221 214.124C54.9286 217.18 55.3844 221.678 58.44 224.172L130.538 283.005C133.594 285.499 138.093 285.043 140.586 281.988L309.661 74.7927C312.154 71.737 311.699 67.2386 308.643 64.7451L236.545 5.91147C233.489 3.418 228.991 3.87373 226.497 6.92938Z" fill="#898EBC"/>
<path d="M-24.0631 191.712L-64.9178 241.778C-67.4113 244.834 -66.9555 249.332 -63.8999 251.826L68.0912 359.533C71.1468 362.027 75.6453 361.571 78.1387 358.515L118.993 308.449C121.487 305.394 121.031 300.895 117.975 298.402L-14.0156 190.695C-17.0712 188.201 -21.5697 188.657 -24.0631 191.712Z" fill="#898EBC"/>
<path d="M230.9 -120.736L190.046 -70.6697C187.552 -67.614 188.008 -63.1156 191.064 -60.6222L323.055 47.0851C326.11 49.5785 330.609 49.1228 333.102 46.0672L373.957 -3.99867C376.45 -7.05432 375.995 -11.5528 372.939 -14.0462L240.948 -121.753C237.892 -124.247 233.394 -123.791 230.9 -120.736Z" fill="#898EBC"/>
<path d="M640.528 213.528L558.658 313.857C556.164 316.912 556.62 321.411 559.676 323.904L663.825 408.892C666.881 411.386 671.379 410.93 673.873 407.874L755.743 307.545C758.237 304.49 757.781 299.991 754.725 297.498L650.576 212.51C647.52 210.016 643.022 210.472 640.528 213.528Z" fill="#898EBC"/>
<path d="M809.042 139.82L727.172 240.149C724.678 243.205 725.134 247.703 728.19 250.197L767.289 282.102C770.344 284.596 774.843 284.14 777.336 281.084L859.206 180.755C861.7 177.7 861.244 173.201 858.189 170.708L819.09 138.802C816.034 136.309 811.536 136.765 809.042 139.82Z" fill="#898EBC"/>
<path d="M779.344 43.4134L663.968 184.802C660.455 189.108 660.083 194.62 663.139 197.114L702.238 229.019C705.293 231.513 710.619 230.043 714.133 225.737L829.509 84.3484C833.023 80.0423 833.394 74.5301 830.338 72.0366L791.24 40.1312C788.184 37.6377 782.858 39.1072 779.344 43.4134Z" fill="#898EBC"/>
<path d="M392.225 10.9083L310.355 111.237C307.861 114.293 308.317 118.791 311.373 121.285L530.341 299.967C533.397 302.461 537.895 302.005 540.389 298.949L622.259 198.62C624.752 195.565 624.297 191.066 621.241 188.573L402.273 9.89035C399.217 7.39689 394.719 7.85265 392.225 10.9083Z" fill="#898EBC"/>
<path d="M417.442 -136.473L356.762 -62.1118C354.268 -59.0562 354.724 -54.5578 357.78 -52.0643L633.804 173.177C636.86 175.671 641.358 175.215 643.852 172.159L704.532 97.7976C707.026 94.7419 706.57 90.2435 703.514 87.75L427.49 -137.491C424.434 -139.985 419.936 -139.529 417.442 -136.473Z" fill="#898EBC"/>
<path d="M-187.007 -109.72L-247.687 -35.3587C-250.181 -32.303 -249.725 -27.8046 -246.669 -25.3111L29.3553 199.93C32.411 202.424 36.9094 201.968 39.4029 198.912L100.083 124.551C102.577 121.495 102.121 116.997 99.0654 114.503L-176.959 -110.738C-180.015 -113.232 -184.513 -112.776 -187.007 -109.72Z" fill="#898EBC"/>
<path d="M-104.486 -210.847L-165.166 -136.486C-167.66 -133.43 -167.204 -128.932 -164.148 -126.438L111.876 98.803C114.932 101.296 119.43 100.841 121.924 97.7851L182.604 23.4235C185.098 20.3679 184.642 15.8695 181.586 13.376L-94.4382 -211.865C-97.4938 -214.359 -101.992 -213.903 -104.486 -210.847Z" fill="#898EBC"/>
<path d="M-77.0136 -244.514L-83.873 -236.108C-86.3665 -233.052 -85.9107 -228.554 -82.8551 -226.06L193.17 -0.818812C196.225 1.67466 200.724 1.21892 203.217 -1.83673L210.076 -10.2427C212.57 -13.2983 212.114 -17.7967 209.059 -20.2902L-66.966 -245.532C-70.0217 -248.025 -74.5201 -247.569 -77.0136 -244.514Z" fill="#898EBC"/>
<path d="M176.43 275.357L94.5594 375.686C92.0659 378.742 92.5216 383.24 95.5773 385.734L314.546 564.416C317.601 566.91 322.1 566.454 324.593 563.398L406.464 463.069C408.957 460.014 408.501 455.515 405.446 453.022L186.477 274.339C183.422 271.846 178.923 272.302 176.43 275.357Z" fill="#898EBC"/>
<path d="M385.519 253.932L331.301 320.374C326.314 326.486 327.225 335.482 333.336 340.469L412.638 405.181C418.749 410.168 427.746 409.256 432.733 403.145L486.951 336.703C491.938 330.591 491.027 321.594 484.915 316.607L405.614 251.896C399.503 246.909 390.506 247.82 385.519 253.932Z" fill="#898EBC"/>
<path d="M253.954 200.627L223.537 237.903C218.55 244.014 219.461 253.011 225.572 257.998L266.744 291.595C272.855 296.582 281.852 295.67 286.839 289.559L317.257 252.283C322.244 246.172 321.332 237.175 315.221 232.188L274.049 198.591C267.938 193.604 258.941 194.516 253.954 200.627Z" fill="#898EBC"/>
<path d="M283.578 164.324L280.289 168.354C275.302 174.466 276.213 183.463 282.324 188.45L295.827 199.467C301.938 204.454 310.935 203.543 315.922 197.432L319.211 193.401C324.198 187.29 323.286 178.293 317.175 173.306L303.673 162.288C297.562 157.301 288.565 158.213 283.578 164.324Z" fill="#898EBC"/>
<path d="M222.485 31.3429L80.5352 205.297C75.5483 211.408 76.4598 220.405 82.5711 225.392L124.504 259.61C130.616 264.597 139.613 263.685 144.599 257.574L286.549 83.6205C291.536 77.5092 290.624 68.5123 284.513 63.5254L242.58 29.307C236.469 24.3201 227.472 25.2316 222.485 31.3429Z" fill="#898EBC"/>
<path d="M-25.0595 211.484L-45.7472 236.836C-50.7341 242.948 -49.8226 251.945 -43.7113 256.931L59.0403 340.779C65.1516 345.766 74.1485 344.854 79.1354 338.743L99.8231 313.391C104.81 307.28 103.899 298.283 97.7873 293.296L-4.9644 209.449C-11.0757 204.462 -20.0726 205.373 -25.0595 211.484Z" fill="#898EBC"/>
<path d="M227.024 -99.5967L209.978 -78.7066C204.991 -72.5953 205.902 -63.5984 212.013 -58.6115L316.883 26.9637C322.994 31.9506 331.991 31.0392 336.978 24.9279L354.024 4.03777C359.011 -2.07351 358.1 -11.0704 351.989 -16.0573L247.119 -101.633C241.008 -106.619 232.011 -105.708 227.024 -99.5967Z" fill="#898EBC"/>
<path d="M635.695 249.834L593.257 301.84C588.27 307.951 589.181 316.948 595.293 321.935L658.612 373.605C664.723 378.592 673.72 377.68 678.707 371.569L721.145 319.563C726.132 313.451 725.221 304.455 719.109 299.468L655.79 247.798C649.679 242.811 640.682 243.722 635.695 249.834Z" fill="#898EBC"/>
<path d="M735.603 116.426L689.524 172.895C684.537 179.006 685.448 188.003 691.559 192.99L700.579 200.35C706.691 205.337 715.687 204.425 720.674 198.314L766.754 141.845C771.741 135.734 770.829 126.737 764.718 121.75L755.698 114.39C749.587 109.403 740.59 110.314 735.603 116.426Z" fill="#898EBC"/>
<path d="M391.149 34.3325L333.087 105.486C328.1 111.597 329.011 120.594 335.122 125.581L385.328 166.549C391.439 171.536 400.436 170.625 405.423 164.514L463.485 93.3604C468.472 87.2491 467.561 78.2523 461.45 73.2653L411.244 32.2966C405.133 27.3097 396.136 28.2212 391.149 34.3325Z" fill="#898EBC"/>
<path d="M473.718 101.709L415.656 172.863C410.669 178.974 411.58 187.971 417.691 192.958L467.897 233.926C474.008 238.913 483.005 238.002 487.992 231.891L546.054 160.737C551.041 154.626 550.13 145.629 544.019 140.642L493.813 99.6736C487.702 94.6867 478.705 95.5981 473.718 101.709Z" fill="#898EBC"/>
<path d="M525.798 206.451L498.225 240.241C493.238 246.352 494.149 255.349 500.261 260.336L521.493 277.662C527.604 282.649 536.601 281.738 541.588 275.627L569.162 241.836C574.149 235.725 573.237 226.728 567.126 221.741L545.893 204.415C539.782 199.428 530.785 200.34 525.798 206.451Z" fill="#898EBC"/>
<path d="M556.288 169.087L550.401 176.301C545.414 182.413 546.325 191.41 552.436 196.397L573.669 213.723C579.78 218.71 588.777 217.798 593.764 211.687L599.651 204.473C604.638 198.361 603.727 189.364 597.615 184.377L576.383 167.051C570.272 162.064 561.275 162.976 556.288 169.087Z" fill="#898EBC"/>
<path d="M413.462 -109.743L382.151 -71.3714C377.164 -65.2601 378.075 -56.2632 384.186 -51.2763L458.897 9.68924C465.009 14.6762 474.005 13.7647 478.992 7.6534L510.304 -30.7181C515.291 -36.8294 514.38 -45.8262 508.268 -50.8132L433.558 -111.779C427.446 -116.766 418.449 -115.854 413.462 -109.743Z" fill="#898EBC"/>
<path d="M526.41 -17.5759L495.099 20.7956C490.112 26.9069 491.023 35.9038 497.134 40.8907L571.845 101.856C577.957 106.843 586.953 105.932 591.94 99.8204L623.252 61.4489C628.239 55.3376 627.328 46.3407 621.216 41.3538L546.506 -19.6117C540.394 -24.5986 531.397 -23.6871 526.41 -17.5759Z" fill="#898EBC"/>
<path d="M639.357 74.5911L608.046 112.963C603.059 119.074 603.97 128.071 610.081 133.058L627.737 147.465C633.848 152.452 642.845 151.54 647.832 145.429L679.144 107.057C684.131 100.946 683.219 91.9493 677.108 86.9624L659.453 72.5553C653.341 67.5684 644.344 68.4798 639.357 74.5911Z" fill="#898EBC"/>
<path d="M-173.36 -78.7494L-214.609 -28.2005C-219.596 -22.0892 -218.685 -13.0923 -212.574 -8.10538L21.7246 183.086C27.8359 188.073 36.8327 187.162 41.8197 181.05L83.0685 130.502C88.0554 124.39 87.144 115.393 81.0327 110.407L-153.265 -80.7852C-159.377 -85.7721 -168.374 -84.8606 -173.36 -78.7494Z" fill="#898EBC"/>
<path d="M-68.4277 -158.703L-106.848 -111.62C-111.835 -105.508 -110.924 -96.5115 -104.813 -91.5246L105.661 80.226C111.772 85.2129 120.769 84.3014 125.756 78.1901L164.177 31.107C169.164 24.9957 168.252 15.9989 162.141 11.0119L-48.3326 -160.739C-54.4439 -165.726 -63.4408 -164.814 -68.4277 -158.703Z" fill="#898EBC"/>
<path d="M543.45 -160.935L505.03 -113.852C500.043 -107.74 500.954 -98.7434 507.065 -93.7565L717.539 77.994C723.65 82.9809 732.647 82.0695 737.634 75.9582L776.055 28.8751C781.042 22.7638 780.13 13.7669 774.019 8.78L563.545 -162.971C557.434 -167.957 548.437 -167.046 543.45 -160.935Z" fill="#898EBC"/>
<path d="M173.145 301.487L119.5 367.227C114.513 373.339 115.424 382.335 121.535 387.322L211.299 460.571C217.41 465.558 226.407 464.646 231.394 458.535L285.039 392.795C290.026 386.683 289.115 377.686 283.003 372.699L193.24 299.451C187.129 294.464 178.132 295.375 173.145 301.487Z" fill="#898EBC"/>
</g>
</g>
<defs>
<clipPath id="clip0_109_343">
<rect y="317" width="317" height="730" rx="6" transform="rotate(-90 0 317)" fill="white"/>
</clipPath>
<clipPath id="clip1_109_343">
<rect width="375" height="812" fill="white" transform="translate(0 336) rotate(-90)"/>
</clipPath>
</defs>
</svg>
