<svg width="21" height="21" viewBox="0 0 21 21" fill="none" xmlns="http://www.w3.org/2000/svg">
<path fill-rule="evenodd" clip-rule="evenodd" d="M9.06463 11.7049C7.71463 10.3549 6.69694 8.84334 6.02079 7.30988C5.87771 6.98565 5.96194 6.60603 6.21233 6.35565L7.15733 5.4118C7.93156 4.63757 7.93156 3.54257 7.2554 2.86642L5.90079 1.5118C4.99963 0.610649 3.53886 0.610649 2.63771 1.5118L1.8854 2.26411C1.0304 3.11911 0.673864 4.35257 0.904633 5.57565C1.47463 8.59065 3.22617 11.8918 6.05194 14.7176C8.87771 17.5433 12.1789 19.2949 15.1939 19.8649C16.4169 20.0956 17.6504 19.7391 18.5054 18.8841L19.2566 18.133C20.1577 17.2318 20.1577 15.771 19.2566 14.8699L17.9031 13.5164C17.2269 12.8403 16.1308 12.8403 15.4558 13.5164L14.4139 14.5595C14.1635 14.8099 13.7839 14.8941 13.4596 14.751C11.9262 14.0737 10.4146 13.0549 9.06463 11.7049Z" stroke="#FF6C4E" stroke-width="1.5" stroke-linecap="round" stroke-linejoin="round"/>
</svg>
